<svg width="657" height="127" viewBox="0 0 657 127" fill="none" xmlns="http://www.w3.org/2000/svg">
<g clip-path="url(#clip0_1_2)">
<rect width="657" height="127" fill="black"/>
<rect x="20.148" y="11.816" width="1.752" height="1.752" fill="white" fill-opacity="0.15"/>
<rect x="44.676" y="11.816" width="1.752" height="1.752" fill="white" fill-opacity="0.15"/>
<rect x="69.204" y="11.816" width="1.752" height="1.752" fill="white" fill-opacity="0.15"/>
<rect x="93.732" y="11.816" width="1.752" height="1.752" fill="white" fill-opacity="0.15"/>
<rect x="118.26" y="11.816" width="1.752" height="1.752" fill="white" fill-opacity="0.15"/>
<rect x="142.788" y="11.816" width="1.752" height="1.752" fill="white" fill-opacity="0.15"/>
<rect x="167.316" y="11.816" width="1.752" height="1.752" fill="white" fill-opacity="0.15"/>
<rect x="191.844" y="11.816" width="1.752" height="1.752" fill="white" fill-opacity="0.15"/>
<rect x="216.372" y="11.816" width="1.752" height="1.752" fill="white" fill-opacity="0.15"/>
<rect x="240.9" y="11.816" width="1.752" height="1.752" fill="white" fill-opacity="0.15"/>
<rect x="265.428" y="11.816" width="1.752" height="1.752" fill="white" fill-opacity="0.15"/>
<rect x="289.956" y="11.816" width="1.752" height="1.752" fill="white" fill-opacity="0.15"/>
<rect x="314.484" y="11.816" width="1.752" height="1.752" fill="white" fill-opacity="0.15"/>
<rect x="339.012" y="11.816" width="1.752" height="1.752" fill="white" fill-opacity="0.15"/>
<rect x="363.54" y="11.816" width="1.752" height="1.752" fill="white" fill-opacity="0.15"/>
<rect x="388.068" y="11.816" width="1.752" height="1.752" fill="white" fill-opacity="0.15"/>
<rect x="412.596" y="11.816" width="1.752" height="1.752" fill="white" fill-opacity="0.15"/>
<rect x="437.124" y="11.816" width="1.752" height="1.752" fill="white" fill-opacity="0.15"/>
<rect x="461.652" y="11.816" width="1.752" height="1.752" fill="white" fill-opacity="0.15"/>
<rect x="486.18" y="11.816" width="1.752" height="1.752" fill="white" fill-opacity="0.15"/>
<rect x="510.708" y="11.816" width="1.752" height="1.752" fill="white" fill-opacity="0.15"/>
<rect x="535.236" y="11.816" width="1.752" height="1.752" fill="white" fill-opacity="0.15"/>
<rect x="559.764" y="11.816" width="1.752" height="1.752" fill="white" fill-opacity="0.15"/>
<rect x="584.292" y="11.816" width="1.752" height="1.752" fill="white" fill-opacity="0.15"/>
<rect x="608.82" y="11.816" width="1.752" height="1.752" fill="white" fill-opacity="0.15"/>
<rect x="633.348" y="11.816" width="1.752" height="1.752" fill="white" fill-opacity="0.15"/>
<rect x="20.148" y="36.344" width="1.752" height="1.752" fill="white" fill-opacity="0.15"/>
<rect x="44.676" y="36.344" width="1.752" height="1.752" fill="white" fill-opacity="0.15"/>
<rect x="69.204" y="36.344" width="1.752" height="1.752" fill="white" fill-opacity="0.15"/>
<rect x="93.732" y="36.344" width="1.752" height="1.752" fill="white" fill-opacity="0.15"/>
<rect x="118.26" y="36.344" width="1.752" height="1.752" fill="white" fill-opacity="0.15"/>
<rect x="142.788" y="36.344" width="1.752" height="1.752" fill="white" fill-opacity="0.15"/>
<rect x="167.316" y="36.344" width="1.752" height="1.752" fill="white" fill-opacity="0.15"/>
<rect x="191.844" y="36.344" width="1.752" height="1.752" fill="white" fill-opacity="0.15"/>
<rect x="216.372" y="36.344" width="1.752" height="1.752" fill="white" fill-opacity="0.15"/>
<rect x="240.9" y="36.344" width="1.752" height="1.752" fill="white" fill-opacity="0.15"/>
<rect x="265.428" y="36.344" width="1.752" height="1.752" fill="white" fill-opacity="0.15"/>
<rect x="289.956" y="36.344" width="1.752" height="1.752" fill="white" fill-opacity="0.15"/>
<rect x="314.484" y="36.344" width="1.752" height="1.752" fill="white" fill-opacity="0.15"/>
<rect x="339.012" y="36.344" width="1.752" height="1.752" fill="white" fill-opacity="0.15"/>
<rect x="363.54" y="36.344" width="1.752" height="1.752" fill="white" fill-opacity="0.15"/>
<rect x="388.068" y="36.344" width="1.752" height="1.752" fill="white" fill-opacity="0.15"/>
<rect x="412.596" y="36.344" width="1.752" height="1.752" fill="white" fill-opacity="0.15"/>
<rect x="437.124" y="36.344" width="1.752" height="1.752" fill="white" fill-opacity="0.15"/>
<rect x="461.652" y="36.344" width="1.752" height="1.752" fill="white" fill-opacity="0.15"/>
<rect x="486.18" y="36.344" width="1.752" height="1.752" fill="white" fill-opacity="0.15"/>
<rect x="510.708" y="36.344" width="1.752" height="1.752" fill="white" fill-opacity="0.15"/>
<rect x="535.236" y="36.344" width="1.752" height="1.752" fill="white" fill-opacity="0.15"/>
<rect x="559.764" y="36.344" width="1.752" height="1.752" fill="white" fill-opacity="0.15"/>
<rect x="584.292" y="36.344" width="1.752" height="1.752" fill="white" fill-opacity="0.15"/>
<rect x="608.82" y="36.344" width="1.752" height="1.752" fill="white" fill-opacity="0.15"/>
<rect x="633.348" y="36.344" width="1.752" height="1.752" fill="white" fill-opacity="0.15"/>
<rect x="20.148" y="60.872" width="1.752" height="1.752" fill="white" fill-opacity="0.15"/>
<rect x="44.676" y="60.872" width="1.752" height="1.752" fill="white" fill-opacity="0.15"/>
<rect x="69.204" y="60.872" width="1.752" height="1.752" fill="white" fill-opacity="0.15"/>
<rect x="93.732" y="60.872" width="1.752" height="1.752" fill="white" fill-opacity="0.15"/>
<rect x="118.26" y="60.872" width="1.752" height="1.752" fill="white" fill-opacity="0.15"/>
<rect x="142.788" y="60.872" width="1.752" height="1.752" fill="white" fill-opacity="0.15"/>
<rect x="167.316" y="60.872" width="1.752" height="1.752" fill="white" fill-opacity="0.15"/>
<rect x="191.844" y="60.872" width="1.752" height="1.752" fill="white" fill-opacity="0.15"/>
<rect x="216.372" y="60.872" width="1.752" height="1.752" fill="white" fill-opacity="0.15"/>
<rect x="240.9" y="60.872" width="1.752" height="1.752" fill="white" fill-opacity="0.15"/>
<rect x="265.428" y="60.872" width="1.752" height="1.752" fill="white" fill-opacity="0.15"/>
<rect x="289.956" y="60.872" width="1.752" height="1.752" fill="white" fill-opacity="0.15"/>
<rect x="314.484" y="60.872" width="1.752" height="1.752" fill="white" fill-opacity="0.15"/>
<rect x="339.012" y="60.872" width="1.752" height="1.752" fill="white" fill-opacity="0.15"/>
<rect x="363.54" y="60.872" width="1.752" height="1.752" fill="white" fill-opacity="0.15"/>
<rect x="388.068" y="60.872" width="1.752" height="1.752" fill="white" fill-opacity="0.15"/>
<rect x="412.596" y="60.872" width="1.752" height="1.752" fill="white" fill-opacity="0.15"/>
<rect x="437.124" y="60.872" width="1.752" height="1.752" fill="white" fill-opacity="0.15"/>
<rect x="461.652" y="60.872" width="1.752" height="1.752" fill="white" fill-opacity="0.15"/>
<rect x="486.18" y="60.872" width="1.752" height="1.752" fill="white" fill-opacity="0.15"/>
<rect x="510.708" y="60.872" width="1.752" height="1.752" fill="white" fill-opacity="0.15"/>
<rect x="535.236" y="60.872" width="1.752" height="1.752" fill="white" fill-opacity="0.15"/>
<rect x="559.764" y="60.872" width="1.752" height="1.752" fill="white" fill-opacity="0.15"/>
<rect x="584.292" y="60.872" width="1.752" height="1.752" fill="white" fill-opacity="0.15"/>
<rect x="608.82" y="60.872" width="1.752" height="1.752" fill="white" fill-opacity="0.15"/>
<rect x="633.348" y="60.872" width="1.752" height="1.752" fill="white" fill-opacity="0.15"/>
<rect x="20.148" y="85.4" width="1.752" height="1.752" fill="white" fill-opacity="0.15"/>
<rect x="44.676" y="85.4" width="1.752" height="1.752" fill="white" fill-opacity="0.15"/>
<rect x="69.204" y="85.4" width="1.752" height="1.752" fill="white" fill-opacity="0.15"/>
<rect x="93.732" y="85.4" width="1.752" height="1.752" fill="white" fill-opacity="0.15"/>
<rect x="118.26" y="85.4" width="1.752" height="1.752" fill="white" fill-opacity="0.15"/>
<rect x="142.788" y="85.4" width="1.752" height="1.752" fill="white" fill-opacity="0.15"/>
<rect x="167.316" y="85.4" width="1.752" height="1.752" fill="white" fill-opacity="0.15"/>
<rect x="191.844" y="85.4" width="1.752" height="1.752" fill="white" fill-opacity="0.15"/>
<rect x="216.372" y="85.4" width="1.752" height="1.752" fill="white" fill-opacity="0.15"/>
<rect x="240.9" y="85.4" width="1.752" height="1.752" fill="white" fill-opacity="0.15"/>
<rect x="265.428" y="85.4" width="1.752" height="1.752" fill="white" fill-opacity="0.15"/>
<rect x="289.956" y="85.4" width="1.752" height="1.752" fill="white" fill-opacity="0.15"/>
<rect x="314.484" y="85.4" width="1.752" height="1.752" fill="white" fill-opacity="0.15"/>
<rect x="339.012" y="85.4" width="1.752" height="1.752" fill="white" fill-opacity="0.15"/>
<rect x="363.54" y="85.4" width="1.752" height="1.752" fill="white" fill-opacity="0.15"/>
<rect x="388.068" y="85.4" width="1.752" height="1.752" fill="white" fill-opacity="0.15"/>
<rect x="412.596" y="85.4" width="1.752" height="1.752" fill="white" fill-opacity="0.15"/>
<rect x="437.124" y="85.4" width="1.752" height="1.752" fill="white" fill-opacity="0.15"/>
<rect x="461.652" y="85.4" width="1.752" height="1.752" fill="white" fill-opacity="0.15"/>
<rect x="486.18" y="85.4" width="1.752" height="1.752" fill="white" fill-opacity="0.15"/>
<rect x="510.708" y="85.4" width="1.752" height="1.752" fill="white" fill-opacity="0.15"/>
<rect x="535.236" y="85.4" width="1.752" height="1.752" fill="white" fill-opacity="0.15"/>
<rect x="559.764" y="85.4" width="1.752" height="1.752" fill="white" fill-opacity="0.15"/>
<rect x="584.292" y="85.4" width="1.752" height="1.752" fill="white" fill-opacity="0.15"/>
<rect x="608.82" y="85.4" width="1.752" height="1.752" fill="white" fill-opacity="0.15"/>
<rect x="633.348" y="85.4" width="1.752" height="1.752" fill="white" fill-opacity="0.15"/>
<rect x="20.148" y="109.928" width="1.752" height="1.752" fill="white" fill-opacity="0.15"/>
<rect x="44.676" y="109.928" width="1.752" height="1.752" fill="white" fill-opacity="0.15"/>
<rect x="69.204" y="109.928" width="1.752" height="1.752" fill="white" fill-opacity="0.15"/>
<rect x="93.732" y="109.928" width="1.752" height="1.752" fill="white" fill-opacity="0.15"/>
<rect x="118.26" y="109.928" width="1.752" height="1.752" fill="white" fill-opacity="0.15"/>
<rect x="142.788" y="109.928" width="1.752" height="1.752" fill="white" fill-opacity="0.15"/>
<rect x="167.316" y="109.928" width="1.752" height="1.752" fill="white" fill-opacity="0.15"/>
<rect x="191.844" y="109.928" width="1.752" height="1.752" fill="white" fill-opacity="0.15"/>
<rect x="216.372" y="109.928" width="1.752" height="1.752" fill="white" fill-opacity="0.15"/>
<rect x="240.9" y="109.928" width="1.752" height="1.752" fill="white" fill-opacity="0.15"/>
<rect x="265.428" y="109.928" width="1.752" height="1.752" fill="white" fill-opacity="0.15"/>
<rect x="289.956" y="109.928" width="1.752" height="1.752" fill="white" fill-opacity="0.15"/>
<rect x="314.484" y="109.928" width="1.752" height="1.752" fill="white" fill-opacity="0.15"/>
<rect x="339.012" y="109.928" width="1.752" height="1.752" fill="white" fill-opacity="0.15"/>
<rect x="363.54" y="109.928" width="1.752" height="1.752" fill="white" fill-opacity="0.15"/>
<rect x="388.068" y="109.928" width="1.752" height="1.752" fill="white" fill-opacity="0.15"/>
<rect x="412.596" y="109.928" width="1.752" height="1.752" fill="white" fill-opacity="0.15"/>
<rect x="437.124" y="109.928" width="1.752" height="1.752" fill="white" fill-opacity="0.15"/>
<rect x="461.652" y="109.928" width="1.752" height="1.752" fill="white" fill-opacity="0.15"/>
<rect x="486.18" y="109.928" width="1.752" height="1.752" fill="white" fill-opacity="0.15"/>
<rect x="510.708" y="109.928" width="1.752" height="1.752" fill="white" fill-opacity="0.15"/>
<rect x="535.236" y="109.928" width="1.752" height="1.752" fill="white" fill-opacity="0.15"/>
<rect x="559.764" y="109.928" width="1.752" height="1.752" fill="white" fill-opacity="0.15"/>
<rect x="584.292" y="109.928" width="1.752" height="1.752" fill="white" fill-opacity="0.15"/>
<rect x="608.82" y="109.928" width="1.752" height="1.752" fill="white" fill-opacity="0.15"/>
<rect x="633.348" y="109.928" width="1.752" height="1.752" fill="white" fill-opacity="0.15"/>
<path d="M187.5 72.402V69.402H184.5V66.402H190.5V69.402H199.5V63.402H187.5V60.402H184.5V54.402H187.5V51.402H202.5V54.402H205.5V57.402H199.5V54.402H190.5V60.402H202.5V63.402H205.5V69.402H202.5V72.402H187.5ZM217.5 72.402V54.402H211.5V51.402H229.5V54.402H223.5V72.402H217.5ZM232.5 72.402V57.402H235.5V54.402H238.5V51.402H247.5V54.402H250.5V57.402H253.5V72.402H247.5V66.402H238.5V72.402H232.5ZM238.5 63.402H247.5V57.402H244.5V54.402H241.5V57.402H238.5V63.402ZM265.5 72.402V54.402H259.5V51.402H277.5V54.402H271.5V72.402H265.5ZM283.5 72.402V69.402H289.5V54.402H283.5V51.402H301.5V54.402H295.5V69.402H301.5V72.402H283.5ZM310.5 72.402V69.402H307.5V66.402H304.5V57.402H307.5V54.402H310.5V51.402H322.5V54.402H325.5V57.402H319.5V54.402H313.5V57.402H310.5V66.402H313.5V69.402H319.5V66.402H325.5V69.402H322.5V72.402H310.5ZM328.5 75.402V72.402H349.5V75.402H328.5ZM355.5 72.402V51.402H361.5V69.402H373.5V72.402H355.5ZM379.5 72.402V69.402H385.5V54.402H379.5V51.402H397.5V54.402H391.5V69.402H397.5V72.402H379.5ZM403.5 72.402V69.402H400.5V66.402H406.5V69.402H415.5V63.402H403.5V60.402H400.5V54.402H403.5V51.402H418.5V54.402H421.5V57.402H415.5V54.402H406.5V60.402H418.5V63.402H421.5V69.402H418.5V72.402H403.5ZM433.5 72.402V54.402H427.5V51.402H445.5V54.402H439.5V72.402H433.5ZM451.5 72.402V69.402H448.5V66.402H454.5V69.402H463.5V63.402H451.5V60.402H448.5V54.402H451.5V51.402H466.5V54.402H469.5V57.402H463.5V54.402H454.5V60.402H466.5V63.402H469.5V69.402H466.5V72.402H451.5Z" fill="#D9D9D9"/>
</g>
<defs>
<clipPath id="clip0_1_2">
<rect width="657" height="127" fill="white"/>
</clipPath>
</defs>
</svg>
