<svg width="1500" height="500" viewBox="0 0 1500 500" fill="none" xmlns="http://www.w3.org/2000/svg">
<g clip-path="url(#clip0_1_2)">
<rect width="1500" height="500" rx="50" fill="black"/>
<rect x="46" y="20" width="8" height="8" fill="white" fill-opacity="0.15"/>
<rect x="102" y="20" width="8" height="8" fill="white" fill-opacity="0.15"/>
<rect x="158" y="20" width="8" height="8" fill="white" fill-opacity="0.15"/>
<rect x="214" y="20" width="8" height="8" fill="white" fill-opacity="0.15"/>
<rect x="270" y="20" width="8" height="8" fill="white" fill-opacity="0.15"/>
<rect x="326" y="20" width="8" height="8" fill="white" fill-opacity="0.15"/>
<rect x="382" y="20" width="8" height="8" fill="white" fill-opacity="0.15"/>
<rect x="438" y="20" width="8" height="8" fill="white" fill-opacity="0.15"/>
<rect x="494" y="20" width="8" height="8" fill="white" fill-opacity="0.15"/>
<rect x="550" y="20" width="8" height="8" fill="white" fill-opacity="0.15"/>
<rect x="606" y="20" width="8" height="8" fill="white" fill-opacity="0.15"/>
<rect x="662" y="20" width="8" height="8" fill="white" fill-opacity="0.15"/>
<rect x="718" y="20" width="8" height="8" fill="white" fill-opacity="0.15"/>
<rect x="774" y="20" width="8" height="8" fill="white" fill-opacity="0.15"/>
<rect x="830" y="20" width="8" height="8" fill="white" fill-opacity="0.15"/>
<rect x="886" y="20" width="8" height="8" fill="white" fill-opacity="0.15"/>
<rect x="942" y="20" width="8" height="8" fill="white" fill-opacity="0.15"/>
<rect x="998" y="20" width="8" height="8" fill="white" fill-opacity="0.15"/>
<rect x="1054" y="20" width="8" height="8" fill="white" fill-opacity="0.15"/>
<rect x="1110" y="20" width="8" height="8" fill="white" fill-opacity="0.15"/>
<rect x="1166" y="20" width="8" height="8" fill="white" fill-opacity="0.15"/>
<rect x="1222" y="20" width="8" height="8" fill="white" fill-opacity="0.15"/>
<rect x="1278" y="20" width="8" height="8" fill="white" fill-opacity="0.15"/>
<rect x="1334" y="20" width="8" height="8" fill="white" fill-opacity="0.15"/>
<rect x="1390" y="20" width="8" height="8" fill="white" fill-opacity="0.15"/>
<rect x="1446" y="20" width="8" height="8" fill="white" fill-opacity="0.15"/>
<rect x="46" y="76" width="8" height="8" fill="white" fill-opacity="0.15"/>
<rect x="102" y="76" width="8" height="8" fill="white" fill-opacity="0.15"/>
<rect x="158" y="76" width="8" height="8" fill="white" fill-opacity="0.15"/>
<rect x="214" y="76" width="8" height="8" fill="white" fill-opacity="0.15"/>
<rect x="270" y="76" width="8" height="8" fill="white" fill-opacity="0.15"/>
<rect x="326" y="76" width="8" height="8" fill="white" fill-opacity="0.15"/>
<rect x="382" y="76" width="8" height="8" fill="white" fill-opacity="0.15"/>
<rect x="438" y="76" width="8" height="8" fill="white" fill-opacity="0.15"/>
<rect x="494" y="76" width="8" height="8" fill="white" fill-opacity="0.15"/>
<rect x="550" y="76" width="8" height="8" fill="white" fill-opacity="0.15"/>
<rect x="606" y="76" width="8" height="8" fill="white" fill-opacity="0.15"/>
<rect x="662" y="76" width="8" height="8" fill="white" fill-opacity="0.15"/>
<rect x="718" y="76" width="8" height="8" fill="white" fill-opacity="0.15"/>
<rect x="774" y="76" width="8" height="8" fill="white" fill-opacity="0.15"/>
<rect x="830" y="76" width="8" height="8" fill="white" fill-opacity="0.15"/>
<rect x="886" y="76" width="8" height="8" fill="white" fill-opacity="0.15"/>
<rect x="942" y="76" width="8" height="8" fill="white" fill-opacity="0.15"/>
<rect x="998" y="76" width="8" height="8" fill="white" fill-opacity="0.15"/>
<rect x="1054" y="76" width="8" height="8" fill="white" fill-opacity="0.15"/>
<rect x="1110" y="76" width="8" height="8" fill="white" fill-opacity="0.15"/>
<rect x="1166" y="76" width="8" height="8" fill="white" fill-opacity="0.15"/>
<rect x="1222" y="76" width="8" height="8" fill="white" fill-opacity="0.15"/>
<rect x="1278" y="76" width="8" height="8" fill="white" fill-opacity="0.15"/>
<rect x="1334" y="76" width="8" height="8" fill="white" fill-opacity="0.15"/>
<rect x="1390" y="76" width="8" height="8" fill="white" fill-opacity="0.15"/>
<rect x="1446" y="76" width="8" height="8" fill="white" fill-opacity="0.15"/>
<rect x="46" y="132" width="8" height="8" fill="white" fill-opacity="0.15"/>
<rect x="102" y="132" width="8" height="8" fill="white" fill-opacity="0.15"/>
<rect x="158" y="132" width="8" height="8" fill="white" fill-opacity="0.15"/>
<rect x="214" y="132" width="8" height="8" fill="white" fill-opacity="0.15"/>
<rect x="270" y="132" width="8" height="8" fill="white" fill-opacity="0.15"/>
<rect x="326" y="132" width="8" height="8" fill="white" fill-opacity="0.15"/>
<rect x="382" y="132" width="8" height="8" fill="white" fill-opacity="0.15"/>
<rect x="438" y="132" width="8" height="8" fill="white" fill-opacity="0.15"/>
<rect x="494" y="132" width="8" height="8" fill="white" fill-opacity="0.15"/>
<rect x="550" y="132" width="8" height="8" fill="white" fill-opacity="0.15"/>
<rect x="606" y="132" width="8" height="8" fill="white" fill-opacity="0.15"/>
<rect x="662" y="132" width="8" height="8" fill="white" fill-opacity="0.15"/>
<rect x="718" y="132" width="8" height="8" fill="white" fill-opacity="0.15"/>
<rect x="774" y="132" width="8" height="8" fill="white" fill-opacity="0.15"/>
<rect x="830" y="132" width="8" height="8" fill="white" fill-opacity="0.15"/>
<rect x="886" y="132" width="8" height="8" fill="white" fill-opacity="0.15"/>
<rect x="942" y="132" width="8" height="8" fill="white" fill-opacity="0.15"/>
<rect x="998" y="132" width="8" height="8" fill="white" fill-opacity="0.15"/>
<rect x="1054" y="132" width="8" height="8" fill="white" fill-opacity="0.15"/>
<rect x="1110" y="132" width="8" height="8" fill="white" fill-opacity="0.15"/>
<rect x="1166" y="132" width="8" height="8" fill="white" fill-opacity="0.15"/>
<rect x="1222" y="132" width="8" height="8" fill="white" fill-opacity="0.15"/>
<rect x="1278" y="132" width="8" height="8" fill="white" fill-opacity="0.15"/>
<rect x="1334" y="132" width="8" height="8" fill="white" fill-opacity="0.15"/>
<rect x="1390" y="132" width="8" height="8" fill="white" fill-opacity="0.15"/>
<rect x="1446" y="132" width="8" height="8" fill="white" fill-opacity="0.15"/>
<rect x="46" y="188" width="8" height="8" fill="white" fill-opacity="0.15"/>
<rect x="102" y="188" width="8" height="8" fill="white" fill-opacity="0.15"/>
<rect x="158" y="188" width="8" height="8" fill="white" fill-opacity="0.15"/>
<rect x="214" y="188" width="8" height="8" fill="white" fill-opacity="0.15"/>
<rect x="270" y="188" width="8" height="8" fill="white" fill-opacity="0.15"/>
<rect x="326" y="188" width="8" height="8" fill="white" fill-opacity="0.15"/>
<rect x="382" y="188" width="8" height="8" fill="white" fill-opacity="0.15"/>
<rect x="438" y="188" width="8" height="8" fill="white" fill-opacity="0.15"/>
<rect x="494" y="188" width="8" height="8" fill="white" fill-opacity="0.15"/>
<rect x="550" y="188" width="8" height="8" fill="white" fill-opacity="0.15"/>
<rect x="606" y="188" width="8" height="8" fill="white" fill-opacity="0.15"/>
<rect x="662" y="188" width="8" height="8" fill="white" fill-opacity="0.15"/>
<rect x="718" y="188" width="8" height="8" fill="white" fill-opacity="0.15"/>
<rect x="774" y="188" width="8" height="8" fill="white" fill-opacity="0.15"/>
<rect x="830" y="188" width="8" height="8" fill="white" fill-opacity="0.15"/>
<rect x="886" y="188" width="8" height="8" fill="white" fill-opacity="0.15"/>
<rect x="942" y="188" width="8" height="8" fill="white" fill-opacity="0.15"/>
<rect x="998" y="188" width="8" height="8" fill="white" fill-opacity="0.15"/>
<rect x="1054" y="188" width="8" height="8" fill="white" fill-opacity="0.15"/>
<rect x="1110" y="188" width="8" height="8" fill="white" fill-opacity="0.15"/>
<rect x="1166" y="188" width="8" height="8" fill="white" fill-opacity="0.15"/>
<rect x="1222" y="188" width="8" height="8" fill="white" fill-opacity="0.15"/>
<rect x="1278" y="188" width="8" height="8" fill="white" fill-opacity="0.15"/>
<rect x="1334" y="188" width="8" height="8" fill="white" fill-opacity="0.15"/>
<rect x="1390" y="188" width="8" height="8" fill="white" fill-opacity="0.15"/>
<rect x="1446" y="188" width="8" height="8" fill="white" fill-opacity="0.15"/>
<rect x="46" y="244" width="8" height="8" fill="white" fill-opacity="0.15"/>
<rect x="102" y="244" width="8" height="8" fill="white" fill-opacity="0.15"/>
<rect x="158" y="244" width="8" height="8" fill="white" fill-opacity="0.15"/>
<rect x="214" y="244" width="8" height="8" fill="white" fill-opacity="0.15"/>
<rect x="270" y="244" width="8" height="8" fill="white" fill-opacity="0.15"/>
<rect x="326" y="244" width="8" height="8" fill="white" fill-opacity="0.15"/>
<rect x="382" y="244" width="8" height="8" fill="white" fill-opacity="0.15"/>
<rect x="438" y="244" width="8" height="8" fill="white" fill-opacity="0.15"/>
<rect x="494" y="244" width="8" height="8" fill="white" fill-opacity="0.15"/>
<rect x="550" y="244" width="8" height="8" fill="white" fill-opacity="0.15"/>
<rect x="606" y="244" width="8" height="8" fill="white" fill-opacity="0.15"/>
<rect x="662" y="244" width="8" height="8" fill="white" fill-opacity="0.15"/>
<rect x="718" y="244" width="8" height="8" fill="white" fill-opacity="0.15"/>
<rect x="774" y="244" width="8" height="8" fill="white" fill-opacity="0.15"/>
<rect x="830" y="244" width="8" height="8" fill="white" fill-opacity="0.15"/>
<rect x="886" y="244" width="8" height="8" fill="white" fill-opacity="0.15"/>
<rect x="942" y="244" width="8" height="8" fill="white" fill-opacity="0.15"/>
<rect x="998" y="244" width="8" height="8" fill="white" fill-opacity="0.15"/>
<rect x="1054" y="244" width="8" height="8" fill="white" fill-opacity="0.15"/>
<rect x="1110" y="244" width="8" height="8" fill="white" fill-opacity="0.15"/>
<rect x="1166" y="244" width="8" height="8" fill="white" fill-opacity="0.15"/>
<rect x="1222" y="244" width="8" height="8" fill="white" fill-opacity="0.15"/>
<rect x="1278" y="244" width="8" height="8" fill="white" fill-opacity="0.15"/>
<rect x="1334" y="244" width="8" height="8" fill="white" fill-opacity="0.15"/>
<rect x="1390" y="244" width="8" height="8" fill="white" fill-opacity="0.15"/>
<rect x="1446" y="244" width="8" height="8" fill="white" fill-opacity="0.15"/>
<rect x="46" y="300" width="8" height="8" fill="white" fill-opacity="0.15"/>
<rect x="102" y="300" width="8" height="8" fill="white" fill-opacity="0.15"/>
<rect x="158" y="300" width="8" height="8" fill="white" fill-opacity="0.15"/>
<rect x="214" y="300" width="8" height="8" fill="white" fill-opacity="0.15"/>
<rect x="270" y="300" width="8" height="8" fill="white" fill-opacity="0.15"/>
<rect x="326" y="300" width="8" height="8" fill="white" fill-opacity="0.15"/>
<rect x="382" y="300" width="8" height="8" fill="white" fill-opacity="0.15"/>
<rect x="438" y="300" width="8" height="8" fill="white" fill-opacity="0.15"/>
<rect x="494" y="300" width="8" height="8" fill="white" fill-opacity="0.15"/>
<rect x="550" y="300" width="8" height="8" fill="white" fill-opacity="0.15"/>
<rect x="606" y="300" width="8" height="8" fill="white" fill-opacity="0.15"/>
<rect x="662" y="300" width="8" height="8" fill="white" fill-opacity="0.15"/>
<rect x="718" y="300" width="8" height="8" fill="white" fill-opacity="0.15"/>
<rect x="774" y="300" width="8" height="8" fill="white" fill-opacity="0.15"/>
<rect x="830" y="300" width="8" height="8" fill="white" fill-opacity="0.15"/>
<rect x="886" y="300" width="8" height="8" fill="white" fill-opacity="0.15"/>
<rect x="942" y="300" width="8" height="8" fill="white" fill-opacity="0.15"/>
<rect x="998" y="300" width="8" height="8" fill="white" fill-opacity="0.15"/>
<rect x="1054" y="300" width="8" height="8" fill="white" fill-opacity="0.15"/>
<rect x="1110" y="300" width="8" height="8" fill="white" fill-opacity="0.15"/>
<rect x="1166" y="300" width="8" height="8" fill="white" fill-opacity="0.15"/>
<rect x="1222" y="300" width="8" height="8" fill="white" fill-opacity="0.15"/>
<rect x="1278" y="300" width="8" height="8" fill="white" fill-opacity="0.15"/>
<rect x="1334" y="300" width="8" height="8" fill="white" fill-opacity="0.15"/>
<rect x="1390" y="300" width="8" height="8" fill="white" fill-opacity="0.15"/>
<rect x="1446" y="300" width="8" height="8" fill="white" fill-opacity="0.15"/>
<rect x="46" y="356" width="8" height="8" fill="white" fill-opacity="0.15"/>
<rect x="102" y="356" width="8" height="8" fill="white" fill-opacity="0.15"/>
<rect x="158" y="356" width="8" height="8" fill="white" fill-opacity="0.15"/>
<rect x="214" y="356" width="8" height="8" fill="white" fill-opacity="0.15"/>
<rect x="270" y="356" width="8" height="8" fill="white" fill-opacity="0.15"/>
<rect x="326" y="356" width="8" height="8" fill="white" fill-opacity="0.15"/>
<rect x="382" y="356" width="8" height="8" fill="white" fill-opacity="0.15"/>
<rect x="438" y="356" width="8" height="8" fill="white" fill-opacity="0.15"/>
<rect x="494" y="356" width="8" height="8" fill="white" fill-opacity="0.15"/>
<rect x="550" y="356" width="8" height="8" fill="white" fill-opacity="0.15"/>
<rect x="606" y="356" width="8" height="8" fill="white" fill-opacity="0.15"/>
<rect x="662" y="356" width="8" height="8" fill="white" fill-opacity="0.15"/>
<rect x="718" y="356" width="8" height="8" fill="white" fill-opacity="0.15"/>
<rect x="774" y="356" width="8" height="8" fill="white" fill-opacity="0.15"/>
<rect x="830" y="356" width="8" height="8" fill="white" fill-opacity="0.15"/>
<rect x="886" y="356" width="8" height="8" fill="white" fill-opacity="0.15"/>
<rect x="942" y="356" width="8" height="8" fill="white" fill-opacity="0.15"/>
<rect x="998" y="356" width="8" height="8" fill="white" fill-opacity="0.15"/>
<rect x="1054" y="356" width="8" height="8" fill="white" fill-opacity="0.15"/>
<rect x="1110" y="356" width="8" height="8" fill="white" fill-opacity="0.15"/>
<rect x="1166" y="356" width="8" height="8" fill="white" fill-opacity="0.15"/>
<rect x="1222" y="356" width="8" height="8" fill="white" fill-opacity="0.15"/>
<rect x="1278" y="356" width="8" height="8" fill="white" fill-opacity="0.15"/>
<rect x="1334" y="356" width="8" height="8" fill="white" fill-opacity="0.15"/>
<rect x="1390" y="356" width="8" height="8" fill="white" fill-opacity="0.15"/>
<rect x="1446" y="356" width="8" height="8" fill="white" fill-opacity="0.15"/>
<rect x="46" y="412" width="8" height="8" fill="white" fill-opacity="0.15"/>
<rect x="102" y="412" width="8" height="8" fill="white" fill-opacity="0.15"/>
<rect x="158" y="412" width="8" height="8" fill="white" fill-opacity="0.15"/>
<rect x="214" y="412" width="8" height="8" fill="white" fill-opacity="0.15"/>
<rect x="270" y="412" width="8" height="8" fill="white" fill-opacity="0.15"/>
<rect x="326" y="412" width="8" height="8" fill="white" fill-opacity="0.15"/>
<rect x="382" y="412" width="8" height="8" fill="white" fill-opacity="0.15"/>
<rect x="438" y="412" width="8" height="8" fill="white" fill-opacity="0.15"/>
<rect x="494" y="412" width="8" height="8" fill="white" fill-opacity="0.15"/>
<rect x="550" y="412" width="8" height="8" fill="white" fill-opacity="0.15"/>
<rect x="606" y="412" width="8" height="8" fill="white" fill-opacity="0.15"/>
<rect x="662" y="412" width="8" height="8" fill="white" fill-opacity="0.15"/>
<rect x="718" y="412" width="8" height="8" fill="white" fill-opacity="0.15"/>
<rect x="774" y="412" width="8" height="8" fill="white" fill-opacity="0.15"/>
<rect x="830" y="412" width="8" height="8" fill="white" fill-opacity="0.15"/>
<rect x="886" y="412" width="8" height="8" fill="white" fill-opacity="0.15"/>
<rect x="942" y="412" width="8" height="8" fill="white" fill-opacity="0.15"/>
<rect x="998" y="412" width="8" height="8" fill="white" fill-opacity="0.15"/>
<rect x="1054" y="412" width="8" height="8" fill="white" fill-opacity="0.15"/>
<rect x="1110" y="412" width="8" height="8" fill="white" fill-opacity="0.15"/>
<rect x="1166" y="412" width="8" height="8" fill="white" fill-opacity="0.15"/>
<rect x="1222" y="412" width="8" height="8" fill="white" fill-opacity="0.15"/>
<rect x="1278" y="412" width="8" height="8" fill="white" fill-opacity="0.15"/>
<rect x="1334" y="412" width="8" height="8" fill="white" fill-opacity="0.15"/>
<rect x="1390" y="412" width="8" height="8" fill="white" fill-opacity="0.15"/>
<rect x="1446" y="412" width="8" height="8" fill="white" fill-opacity="0.15"/>
<rect x="46" y="468" width="8" height="8" fill="white" fill-opacity="0.15"/>
<rect x="102" y="468" width="8" height="8" fill="white" fill-opacity="0.15"/>
<rect x="158" y="468" width="8" height="8" fill="white" fill-opacity="0.15"/>
<rect x="214" y="468" width="8" height="8" fill="white" fill-opacity="0.15"/>
<rect x="270" y="468" width="8" height="8" fill="white" fill-opacity="0.15"/>
<rect x="326" y="468" width="8" height="8" fill="white" fill-opacity="0.15"/>
<rect x="382" y="468" width="8" height="8" fill="white" fill-opacity="0.15"/>
<rect x="438" y="468" width="8" height="8" fill="white" fill-opacity="0.15"/>
<rect x="494" y="468" width="8" height="8" fill="white" fill-opacity="0.15"/>
<rect x="550" y="468" width="8" height="8" fill="white" fill-opacity="0.15"/>
<rect x="606" y="468" width="8" height="8" fill="white" fill-opacity="0.15"/>
<rect x="662" y="468" width="8" height="8" fill="white" fill-opacity="0.15"/>
<rect x="718" y="468" width="8" height="8" fill="white" fill-opacity="0.15"/>
<rect x="774" y="468" width="8" height="8" fill="white" fill-opacity="0.15"/>
<rect x="830" y="468" width="8" height="8" fill="white" fill-opacity="0.15"/>
<rect x="886" y="468" width="8" height="8" fill="white" fill-opacity="0.15"/>
<rect x="942" y="468" width="8" height="8" fill="white" fill-opacity="0.15"/>
<rect x="998" y="468" width="8" height="8" fill="white" fill-opacity="0.15"/>
<rect x="1054" y="468" width="8" height="8" fill="white" fill-opacity="0.15"/>
<rect x="1110" y="468" width="8" height="8" fill="white" fill-opacity="0.15"/>
<rect x="1166" y="468" width="8" height="8" fill="white" fill-opacity="0.15"/>
<rect x="1222" y="468" width="8" height="8" fill="white" fill-opacity="0.15"/>
<rect x="1278" y="468" width="8" height="8" fill="white" fill-opacity="0.15"/>
<rect x="1334" y="468" width="8" height="8" fill="white" fill-opacity="0.15"/>
<rect x="1390" y="468" width="8" height="8" fill="white" fill-opacity="0.15"/>
<rect x="1446" y="468" width="8" height="8" fill="white" fill-opacity="0.15"/>
<path d="M186 286V274H174V262H198V274H234V250H186V238H174V214H186V202H246V214H258V226H234V214H198V238H246V250H258V274H246V286H186ZM306 286V214H282V202H354V214H330V286H306ZM366 286V226H378V214H390V202H426V214H438V226H450V286H426V262H390V286H366ZM390 250H426V226H414V214H402V226H390V250ZM498 286V214H474V202H546V214H522V286H498ZM570 286V274H594V214H570V202H642V214H618V274H642V286H570ZM678 286V274H666V262H654V226H666V214H678V202H726V214H738V226H714V214H690V226H678V262H690V274H714V262H738V274H726V286H678ZM750 298V286H834V298H750ZM858 286V202H882V274H930V286H858ZM954 286V274H978V214H954V202H1026V214H1002V274H1026V286H954ZM1050 286V274H1038V262H1062V274H1098V250H1050V238H1038V214H1050V202H1110V214H1122V226H1098V214H1062V238H1110V250H1122V274H1110V286H1050ZM1170 286V214H1146V202H1218V214H1194V286H1170ZM1242 286V274H1230V262H1254V274H1290V250H1242V238H1230V214H1242V202H1302V214H1314V226H1290V214H1254V238H1302V250H1314V274H1302V286H1242Z" fill="#D9D9D9"/>
</g>
<defs>
<clipPath id="clip0_1_2">
<rect width="1500" height="500" rx="50" fill="white"/>
</clipPath>
</defs>
</svg>
