<svg width="1500" height="127" viewBox="0 0 1500 127" fill="none" xmlns="http://www.w3.org/2000/svg">
<g clip-path="url(#clip0_1_2)">
<rect width="1500" height="127" fill="black"/>
<rect x="675" y="14.64" width="1.752" height="1.752" fill="white" fill-opacity="0.15"/>
<rect x="699.528" y="14.64" width="1.752" height="1.752" fill="white" fill-opacity="0.15"/>
<rect x="724.056" y="14.64" width="1.752" height="1.752" fill="white" fill-opacity="0.15"/>
<rect x="748.584" y="14.64" width="1.752" height="1.752" fill="white" fill-opacity="0.15"/>
<rect x="773.112" y="14.64" width="1.752" height="1.752" fill="white" fill-opacity="0.15"/>
<rect x="797.64" y="14.64" width="1.752" height="1.752" fill="white" fill-opacity="0.15"/>
<rect x="822.168" y="14.64" width="1.752" height="1.752" fill="white" fill-opacity="0.15"/>
<rect x="846.696" y="14.64" width="1.752" height="1.752" fill="white" fill-opacity="0.15"/>
<rect x="871.224" y="14.64" width="1.752" height="1.752" fill="white" fill-opacity="0.15"/>
<rect x="895.752" y="14.64" width="1.752" height="1.752" fill="white" fill-opacity="0.15"/>
<rect x="920.28" y="14.64" width="1.752" height="1.752" fill="white" fill-opacity="0.15"/>
<rect x="944.808" y="14.64" width="1.752" height="1.752" fill="white" fill-opacity="0.15"/>
<rect x="969.336" y="14.64" width="1.752" height="1.752" fill="white" fill-opacity="0.15"/>
<rect x="993.864" y="14.64" width="1.752" height="1.752" fill="white" fill-opacity="0.15"/>
<rect x="1018.39" y="14.64" width="1.752" height="1.752" fill="white" fill-opacity="0.15"/>
<rect x="1042.92" y="14.64" width="1.752" height="1.752" fill="white" fill-opacity="0.15"/>
<rect x="1067.45" y="14.64" width="1.752" height="1.752" fill="white" fill-opacity="0.15"/>
<rect x="1091.98" y="14.64" width="1.752" height="1.752" fill="white" fill-opacity="0.15"/>
<rect x="1116.5" y="14.64" width="1.752" height="1.752" fill="white" fill-opacity="0.15"/>
<rect x="1141.03" y="14.64" width="1.752" height="1.752" fill="white" fill-opacity="0.15"/>
<rect x="1165.56" y="14.64" width="1.752" height="1.752" fill="white" fill-opacity="0.15"/>
<rect x="1190.09" y="14.64" width="1.752" height="1.752" fill="white" fill-opacity="0.15"/>
<rect x="1214.62" y="14.64" width="1.752" height="1.752" fill="white" fill-opacity="0.15"/>
<rect x="1239.14" y="14.64" width="1.752" height="1.752" fill="white" fill-opacity="0.15"/>
<rect x="1263.67" y="14.64" width="1.752" height="1.752" fill="white" fill-opacity="0.15"/>
<rect x="1288.2" y="14.64" width="1.752" height="1.752" fill="white" fill-opacity="0.15"/>
<rect x="1312.73" y="14.64" width="1.752" height="1.752" fill="white" fill-opacity="0.15"/>
<rect x="1337.26" y="14.64" width="1.752" height="1.752" fill="white" fill-opacity="0.15"/>
<rect x="1361.78" y="14.64" width="1.752" height="1.752" fill="white" fill-opacity="0.15"/>
<rect x="1386.31" y="14.64" width="1.752" height="1.752" fill="white" fill-opacity="0.15"/>
<rect x="1410.84" y="14.64" width="1.752" height="1.752" fill="white" fill-opacity="0.15"/>
<rect x="1459.9" y="14.64" width="1.752" height="1.752" fill="white" fill-opacity="0.15"/>
<rect x="1435.37" y="14.64" width="1.752" height="1.752" fill="white" fill-opacity="0.15"/>
<rect x="1484.42" y="14.64" width="1.752" height="1.752" fill="white" fill-opacity="0.15"/>
<rect x="675" y="39.168" width="1.752" height="1.752" fill="white" fill-opacity="0.15"/>
<rect x="699.528" y="39.168" width="1.752" height="1.752" fill="white" fill-opacity="0.15"/>
<rect x="724.056" y="39.168" width="1.752" height="1.752" fill="white" fill-opacity="0.15"/>
<rect x="748.584" y="39.168" width="1.752" height="1.752" fill="white" fill-opacity="0.15"/>
<rect x="773.112" y="39.168" width="1.752" height="1.752" fill="white" fill-opacity="0.15"/>
<rect x="797.64" y="39.168" width="1.752" height="1.752" fill="white" fill-opacity="0.15"/>
<rect x="822.168" y="39.168" width="1.752" height="1.752" fill="white" fill-opacity="0.15"/>
<rect x="846.696" y="39.168" width="1.752" height="1.752" fill="white" fill-opacity="0.15"/>
<rect x="871.224" y="39.168" width="1.752" height="1.752" fill="white" fill-opacity="0.15"/>
<rect x="895.752" y="39.168" width="1.752" height="1.752" fill="white" fill-opacity="0.15"/>
<rect x="920.28" y="39.168" width="1.752" height="1.752" fill="white" fill-opacity="0.15"/>
<rect x="944.808" y="39.168" width="1.752" height="1.752" fill="white" fill-opacity="0.15"/>
<rect x="969.336" y="39.168" width="1.752" height="1.752" fill="white" fill-opacity="0.15"/>
<rect x="993.864" y="39.168" width="1.752" height="1.752" fill="white" fill-opacity="0.15"/>
<rect x="1018.39" y="39.168" width="1.752" height="1.752" fill="white" fill-opacity="0.15"/>
<rect x="1042.92" y="39.168" width="1.752" height="1.752" fill="white" fill-opacity="0.15"/>
<rect x="1067.45" y="39.168" width="1.752" height="1.752" fill="white" fill-opacity="0.15"/>
<rect x="1091.98" y="39.168" width="1.752" height="1.752" fill="white" fill-opacity="0.15"/>
<rect x="1116.5" y="39.168" width="1.752" height="1.752" fill="white" fill-opacity="0.15"/>
<rect x="1141.03" y="39.168" width="1.752" height="1.752" fill="white" fill-opacity="0.15"/>
<rect x="1165.56" y="39.168" width="1.752" height="1.752" fill="white" fill-opacity="0.15"/>
<rect x="1190.09" y="39.168" width="1.752" height="1.752" fill="white" fill-opacity="0.15"/>
<rect x="1214.62" y="39.168" width="1.752" height="1.752" fill="white" fill-opacity="0.15"/>
<rect x="1239.14" y="39.168" width="1.752" height="1.752" fill="white" fill-opacity="0.15"/>
<rect x="1263.67" y="39.168" width="1.752" height="1.752" fill="white" fill-opacity="0.15"/>
<rect x="1288.2" y="39.168" width="1.752" height="1.752" fill="white" fill-opacity="0.15"/>
<rect x="1312.73" y="39.168" width="1.752" height="1.752" fill="white" fill-opacity="0.15"/>
<rect x="1337.26" y="39.168" width="1.752" height="1.752" fill="white" fill-opacity="0.15"/>
<rect x="1361.78" y="39.168" width="1.752" height="1.752" fill="white" fill-opacity="0.15"/>
<rect x="1386.31" y="39.168" width="1.752" height="1.752" fill="white" fill-opacity="0.15"/>
<rect x="1410.84" y="39.168" width="1.752" height="1.752" fill="white" fill-opacity="0.15"/>
<rect x="1459.9" y="39.168" width="1.752" height="1.752" fill="white" fill-opacity="0.15"/>
<rect x="1435.37" y="39.168" width="1.752" height="1.752" fill="white" fill-opacity="0.15"/>
<rect x="1484.42" y="39.168" width="1.752" height="1.752" fill="white" fill-opacity="0.15"/>
<rect x="675" y="63.696" width="1.752" height="1.752" fill="white" fill-opacity="0.15"/>
<rect x="699.528" y="63.696" width="1.752" height="1.752" fill="white" fill-opacity="0.15"/>
<rect x="724.056" y="63.696" width="1.752" height="1.752" fill="white" fill-opacity="0.15"/>
<rect x="748.584" y="63.696" width="1.752" height="1.752" fill="white" fill-opacity="0.15"/>
<rect x="773.112" y="63.696" width="1.752" height="1.752" fill="white" fill-opacity="0.15"/>
<rect x="797.64" y="63.696" width="1.752" height="1.752" fill="white" fill-opacity="0.15"/>
<rect x="822.168" y="63.696" width="1.752" height="1.752" fill="white" fill-opacity="0.15"/>
<rect x="846.696" y="63.696" width="1.752" height="1.752" fill="white" fill-opacity="0.15"/>
<rect x="871.224" y="63.696" width="1.752" height="1.752" fill="white" fill-opacity="0.15"/>
<rect x="895.752" y="63.696" width="1.752" height="1.752" fill="white" fill-opacity="0.15"/>
<rect x="920.28" y="63.696" width="1.752" height="1.752" fill="white" fill-opacity="0.15"/>
<rect x="944.808" y="63.696" width="1.752" height="1.752" fill="white" fill-opacity="0.15"/>
<rect x="969.336" y="63.696" width="1.752" height="1.752" fill="white" fill-opacity="0.15"/>
<rect x="993.864" y="63.696" width="1.752" height="1.752" fill="white" fill-opacity="0.15"/>
<rect x="1018.39" y="63.696" width="1.752" height="1.752" fill="white" fill-opacity="0.15"/>
<rect x="1042.92" y="63.696" width="1.752" height="1.752" fill="white" fill-opacity="0.15"/>
<rect x="1067.45" y="63.696" width="1.752" height="1.752" fill="white" fill-opacity="0.15"/>
<rect x="1091.98" y="63.696" width="1.752" height="1.752" fill="white" fill-opacity="0.15"/>
<rect x="1116.5" y="63.696" width="1.752" height="1.752" fill="white" fill-opacity="0.15"/>
<rect x="1141.03" y="63.696" width="1.752" height="1.752" fill="white" fill-opacity="0.15"/>
<rect x="1165.56" y="63.696" width="1.752" height="1.752" fill="white" fill-opacity="0.15"/>
<rect x="1190.09" y="63.696" width="1.752" height="1.752" fill="white" fill-opacity="0.15"/>
<rect x="1214.62" y="63.696" width="1.752" height="1.752" fill="white" fill-opacity="0.15"/>
<rect x="1239.14" y="63.696" width="1.752" height="1.752" fill="white" fill-opacity="0.15"/>
<rect x="1263.67" y="63.696" width="1.752" height="1.752" fill="white" fill-opacity="0.15"/>
<rect x="1288.2" y="63.696" width="1.752" height="1.752" fill="white" fill-opacity="0.15"/>
<rect x="1312.73" y="63.696" width="1.752" height="1.752" fill="white" fill-opacity="0.15"/>
<rect x="1337.26" y="63.696" width="1.752" height="1.752" fill="white" fill-opacity="0.15"/>
<rect x="1361.78" y="63.696" width="1.752" height="1.752" fill="white" fill-opacity="0.15"/>
<rect x="1386.31" y="63.696" width="1.752" height="1.752" fill="white" fill-opacity="0.15"/>
<rect x="1410.84" y="63.696" width="1.752" height="1.752" fill="white" fill-opacity="0.15"/>
<rect x="1459.9" y="63.696" width="1.752" height="1.752" fill="white" fill-opacity="0.15"/>
<rect x="1435.37" y="63.696" width="1.752" height="1.752" fill="white" fill-opacity="0.15"/>
<rect x="1484.42" y="63.696" width="1.752" height="1.752" fill="white" fill-opacity="0.15"/>
<rect x="675" y="88.224" width="1.752" height="1.752" fill="white" fill-opacity="0.15"/>
<rect x="699.528" y="88.224" width="1.752" height="1.752" fill="white" fill-opacity="0.15"/>
<rect x="724.056" y="88.224" width="1.752" height="1.752" fill="white" fill-opacity="0.15"/>
<rect x="748.584" y="88.224" width="1.752" height="1.752" fill="white" fill-opacity="0.15"/>
<rect x="773.112" y="88.224" width="1.752" height="1.752" fill="white" fill-opacity="0.15"/>
<rect x="797.64" y="88.224" width="1.752" height="1.752" fill="white" fill-opacity="0.15"/>
<rect x="822.168" y="88.224" width="1.752" height="1.752" fill="white" fill-opacity="0.15"/>
<rect x="846.696" y="88.224" width="1.752" height="1.752" fill="white" fill-opacity="0.15"/>
<rect x="871.224" y="88.224" width="1.752" height="1.752" fill="white" fill-opacity="0.15"/>
<rect x="895.752" y="88.224" width="1.752" height="1.752" fill="white" fill-opacity="0.15"/>
<rect x="920.28" y="88.224" width="1.752" height="1.752" fill="white" fill-opacity="0.15"/>
<rect x="944.808" y="88.224" width="1.752" height="1.752" fill="white" fill-opacity="0.15"/>
<rect x="969.336" y="88.224" width="1.752" height="1.752" fill="white" fill-opacity="0.15"/>
<rect x="993.864" y="88.224" width="1.752" height="1.752" fill="white" fill-opacity="0.15"/>
<rect x="1018.39" y="88.224" width="1.752" height="1.752" fill="white" fill-opacity="0.15"/>
<rect x="1042.92" y="88.224" width="1.752" height="1.752" fill="white" fill-opacity="0.15"/>
<rect x="1067.45" y="88.224" width="1.752" height="1.752" fill="white" fill-opacity="0.15"/>
<rect x="1091.98" y="88.224" width="1.752" height="1.752" fill="white" fill-opacity="0.15"/>
<rect x="1116.5" y="88.224" width="1.752" height="1.752" fill="white" fill-opacity="0.15"/>
<rect x="1141.03" y="88.224" width="1.752" height="1.752" fill="white" fill-opacity="0.15"/>
<rect x="1165.56" y="88.224" width="1.752" height="1.752" fill="white" fill-opacity="0.15"/>
<rect x="1190.09" y="88.224" width="1.752" height="1.752" fill="white" fill-opacity="0.15"/>
<rect x="1214.62" y="88.224" width="1.752" height="1.752" fill="white" fill-opacity="0.15"/>
<rect x="1239.14" y="88.224" width="1.752" height="1.752" fill="white" fill-opacity="0.15"/>
<rect x="1263.67" y="88.224" width="1.752" height="1.752" fill="white" fill-opacity="0.15"/>
<rect x="1288.2" y="88.224" width="1.752" height="1.752" fill="white" fill-opacity="0.15"/>
<rect x="1312.73" y="88.224" width="1.752" height="1.752" fill="white" fill-opacity="0.15"/>
<rect x="1337.26" y="88.224" width="1.752" height="1.752" fill="white" fill-opacity="0.15"/>
<rect x="1361.78" y="88.224" width="1.752" height="1.752" fill="white" fill-opacity="0.15"/>
<rect x="1386.31" y="88.224" width="1.752" height="1.752" fill="white" fill-opacity="0.15"/>
<rect x="1410.84" y="88.224" width="1.752" height="1.752" fill="white" fill-opacity="0.15"/>
<rect x="1459.9" y="88.224" width="1.752" height="1.752" fill="white" fill-opacity="0.15"/>
<rect x="1435.37" y="88.224" width="1.752" height="1.752" fill="white" fill-opacity="0.15"/>
<rect x="1484.42" y="88.224" width="1.752" height="1.752" fill="white" fill-opacity="0.15"/>
<rect x="675" y="112.752" width="1.752" height="1.752" fill="white" fill-opacity="0.15"/>
<rect x="699.528" y="112.752" width="1.752" height="1.752" fill="white" fill-opacity="0.15"/>
<rect x="724.056" y="112.752" width="1.752" height="1.752" fill="white" fill-opacity="0.15"/>
<rect x="748.584" y="112.752" width="1.752" height="1.752" fill="white" fill-opacity="0.15"/>
<rect x="773.112" y="112.752" width="1.752" height="1.752" fill="white" fill-opacity="0.15"/>
<rect x="797.64" y="112.752" width="1.752" height="1.752" fill="white" fill-opacity="0.15"/>
<rect x="822.168" y="112.752" width="1.752" height="1.752" fill="white" fill-opacity="0.15"/>
<rect x="846.696" y="112.752" width="1.752" height="1.752" fill="white" fill-opacity="0.15"/>
<rect x="871.224" y="112.752" width="1.752" height="1.752" fill="white" fill-opacity="0.15"/>
<rect x="895.752" y="112.752" width="1.752" height="1.752" fill="white" fill-opacity="0.15"/>
<rect x="920.28" y="112.752" width="1.752" height="1.752" fill="white" fill-opacity="0.15"/>
<rect x="944.808" y="112.752" width="1.752" height="1.752" fill="white" fill-opacity="0.15"/>
<rect x="969.336" y="112.752" width="1.752" height="1.752" fill="white" fill-opacity="0.15"/>
<rect x="993.864" y="112.752" width="1.752" height="1.752" fill="white" fill-opacity="0.15"/>
<rect x="1018.39" y="112.752" width="1.752" height="1.752" fill="white" fill-opacity="0.15"/>
<rect x="1042.92" y="112.752" width="1.752" height="1.752" fill="white" fill-opacity="0.15"/>
<rect x="1067.45" y="112.752" width="1.752" height="1.752" fill="white" fill-opacity="0.15"/>
<rect x="1091.98" y="112.752" width="1.752" height="1.752" fill="white" fill-opacity="0.15"/>
<rect x="1116.5" y="112.752" width="1.752" height="1.752" fill="white" fill-opacity="0.15"/>
<rect x="1141.03" y="112.752" width="1.752" height="1.752" fill="white" fill-opacity="0.15"/>
<rect x="1165.56" y="112.752" width="1.752" height="1.752" fill="white" fill-opacity="0.15"/>
<rect x="1190.09" y="112.752" width="1.752" height="1.752" fill="white" fill-opacity="0.15"/>
<rect x="1214.62" y="112.752" width="1.752" height="1.752" fill="white" fill-opacity="0.15"/>
<rect x="1239.14" y="112.752" width="1.752" height="1.752" fill="white" fill-opacity="0.15"/>
<rect x="1263.67" y="112.752" width="1.752" height="1.752" fill="white" fill-opacity="0.15"/>
<rect x="1288.2" y="112.752" width="1.752" height="1.752" fill="white" fill-opacity="0.15"/>
<rect x="1312.73" y="112.752" width="1.752" height="1.752" fill="white" fill-opacity="0.15"/>
<rect x="1337.26" y="112.752" width="1.752" height="1.752" fill="white" fill-opacity="0.15"/>
<rect x="1361.78" y="112.752" width="1.752" height="1.752" fill="white" fill-opacity="0.15"/>
<rect x="1386.31" y="112.752" width="1.752" height="1.752" fill="white" fill-opacity="0.15"/>
<rect x="1410.84" y="112.752" width="1.752" height="1.752" fill="white" fill-opacity="0.15"/>
<rect x="1459.9" y="112.752" width="1.752" height="1.752" fill="white" fill-opacity="0.15"/>
<rect x="1435.37" y="112.752" width="1.752" height="1.752" fill="white" fill-opacity="0.15"/>
<rect x="1484.42" y="112.752" width="1.752" height="1.752" fill="white" fill-opacity="0.15"/>
<rect x="12.696" y="14.64" width="1.752" height="1.752" fill="white" fill-opacity="0.15"/>
<rect x="37.224" y="14.64" width="1.752" height="1.752" fill="white" fill-opacity="0.15"/>
<rect x="61.752" y="14.64" width="1.752" height="1.752" fill="white" fill-opacity="0.15"/>
<rect x="86.28" y="14.64" width="1.752" height="1.752" fill="white" fill-opacity="0.15"/>
<rect x="110.808" y="14.64" width="1.752" height="1.752" fill="white" fill-opacity="0.15"/>
<rect x="135.336" y="14.64" width="1.752" height="1.752" fill="white" fill-opacity="0.15"/>
<rect x="159.864" y="14.64" width="1.752" height="1.752" fill="white" fill-opacity="0.15"/>
<rect x="184.392" y="14.64" width="1.752" height="1.752" fill="white" fill-opacity="0.15"/>
<rect x="208.92" y="14.64" width="1.752" height="1.752" fill="white" fill-opacity="0.15"/>
<rect x="233.448" y="14.64" width="1.752" height="1.752" fill="white" fill-opacity="0.15"/>
<rect x="257.976" y="14.64" width="1.752" height="1.752" fill="white" fill-opacity="0.15"/>
<rect x="282.504" y="14.64" width="1.752" height="1.752" fill="white" fill-opacity="0.15"/>
<rect x="307.032" y="14.64" width="1.752" height="1.752" fill="white" fill-opacity="0.15"/>
<rect x="331.56" y="14.64" width="1.752" height="1.752" fill="white" fill-opacity="0.15"/>
<rect x="356.088" y="14.64" width="1.752" height="1.752" fill="white" fill-opacity="0.15"/>
<rect x="380.616" y="14.64" width="1.752" height="1.752" fill="white" fill-opacity="0.15"/>
<rect x="405.144" y="14.64" width="1.752" height="1.752" fill="white" fill-opacity="0.15"/>
<rect x="429.672" y="14.64" width="1.752" height="1.752" fill="white" fill-opacity="0.15"/>
<rect x="454.2" y="14.64" width="1.752" height="1.752" fill="white" fill-opacity="0.15"/>
<rect x="478.728" y="14.64" width="1.752" height="1.752" fill="white" fill-opacity="0.15"/>
<rect x="503.256" y="14.64" width="1.752" height="1.752" fill="white" fill-opacity="0.15"/>
<rect x="527.784" y="14.64" width="1.752" height="1.752" fill="white" fill-opacity="0.15"/>
<rect x="552.312" y="14.64" width="1.752" height="1.752" fill="white" fill-opacity="0.15"/>
<rect x="576.84" y="14.64" width="1.752" height="1.752" fill="white" fill-opacity="0.15"/>
<rect x="625.896" y="14.64" width="1.752" height="1.752" fill="white" fill-opacity="0.15"/>
<rect x="601.368" y="14.64" width="1.752" height="1.752" fill="white" fill-opacity="0.15"/>
<rect x="650.424" y="14.64" width="1.752" height="1.752" fill="white" fill-opacity="0.15"/>
<rect x="12.696" y="39.168" width="1.752" height="1.752" fill="white" fill-opacity="0.15"/>
<rect x="37.224" y="39.168" width="1.752" height="1.752" fill="white" fill-opacity="0.15"/>
<rect x="61.752" y="39.168" width="1.752" height="1.752" fill="white" fill-opacity="0.15"/>
<rect x="86.28" y="39.168" width="1.752" height="1.752" fill="white" fill-opacity="0.15"/>
<rect x="110.808" y="39.168" width="1.752" height="1.752" fill="white" fill-opacity="0.15"/>
<rect x="135.336" y="39.168" width="1.752" height="1.752" fill="white" fill-opacity="0.15"/>
<rect x="159.864" y="39.168" width="1.752" height="1.752" fill="white" fill-opacity="0.15"/>
<rect x="184.392" y="39.168" width="1.752" height="1.752" fill="white" fill-opacity="0.15"/>
<rect x="208.92" y="39.168" width="1.752" height="1.752" fill="white" fill-opacity="0.15"/>
<rect x="233.448" y="39.168" width="1.752" height="1.752" fill="white" fill-opacity="0.15"/>
<rect x="257.976" y="39.168" width="1.752" height="1.752" fill="white" fill-opacity="0.15"/>
<rect x="282.504" y="39.168" width="1.752" height="1.752" fill="white" fill-opacity="0.15"/>
<rect x="307.032" y="39.168" width="1.752" height="1.752" fill="white" fill-opacity="0.15"/>
<rect x="331.56" y="39.168" width="1.752" height="1.752" fill="white" fill-opacity="0.15"/>
<rect x="356.088" y="39.168" width="1.752" height="1.752" fill="white" fill-opacity="0.15"/>
<rect x="380.616" y="39.168" width="1.752" height="1.752" fill="white" fill-opacity="0.15"/>
<rect x="405.144" y="39.168" width="1.752" height="1.752" fill="white" fill-opacity="0.15"/>
<rect x="429.672" y="39.168" width="1.752" height="1.752" fill="white" fill-opacity="0.15"/>
<rect x="454.2" y="39.168" width="1.752" height="1.752" fill="white" fill-opacity="0.15"/>
<rect x="478.728" y="39.168" width="1.752" height="1.752" fill="white" fill-opacity="0.15"/>
<rect x="503.256" y="39.168" width="1.752" height="1.752" fill="white" fill-opacity="0.15"/>
<rect x="527.784" y="39.168" width="1.752" height="1.752" fill="white" fill-opacity="0.15"/>
<rect x="552.312" y="39.168" width="1.752" height="1.752" fill="white" fill-opacity="0.15"/>
<rect x="576.84" y="39.168" width="1.752" height="1.752" fill="white" fill-opacity="0.15"/>
<rect x="625.896" y="39.168" width="1.752" height="1.752" fill="white" fill-opacity="0.15"/>
<rect x="601.368" y="39.168" width="1.752" height="1.752" fill="white" fill-opacity="0.15"/>
<rect x="650.424" y="39.168" width="1.752" height="1.752" fill="white" fill-opacity="0.15"/>
<rect x="12.696" y="63.696" width="1.752" height="1.752" fill="white" fill-opacity="0.15"/>
<rect x="37.224" y="63.696" width="1.752" height="1.752" fill="white" fill-opacity="0.15"/>
<rect x="61.752" y="63.696" width="1.752" height="1.752" fill="white" fill-opacity="0.15"/>
<rect x="86.28" y="63.696" width="1.752" height="1.752" fill="white" fill-opacity="0.15"/>
<rect x="110.808" y="63.696" width="1.752" height="1.752" fill="white" fill-opacity="0.15"/>
<rect x="135.336" y="63.696" width="1.752" height="1.752" fill="white" fill-opacity="0.15"/>
<rect x="159.864" y="63.696" width="1.752" height="1.752" fill="white" fill-opacity="0.15"/>
<rect x="184.392" y="63.696" width="1.752" height="1.752" fill="white" fill-opacity="0.15"/>
<rect x="208.92" y="63.696" width="1.752" height="1.752" fill="white" fill-opacity="0.15"/>
<rect x="233.448" y="63.696" width="1.752" height="1.752" fill="white" fill-opacity="0.15"/>
<rect x="257.976" y="63.696" width="1.752" height="1.752" fill="white" fill-opacity="0.15"/>
<rect x="282.504" y="63.696" width="1.752" height="1.752" fill="white" fill-opacity="0.15"/>
<rect x="307.032" y="63.696" width="1.752" height="1.752" fill="white" fill-opacity="0.15"/>
<rect x="331.56" y="63.696" width="1.752" height="1.752" fill="white" fill-opacity="0.15"/>
<rect x="356.088" y="63.696" width="1.752" height="1.752" fill="white" fill-opacity="0.15"/>
<rect x="380.616" y="63.696" width="1.752" height="1.752" fill="white" fill-opacity="0.15"/>
<rect x="405.144" y="63.696" width="1.752" height="1.752" fill="white" fill-opacity="0.15"/>
<rect x="429.672" y="63.696" width="1.752" height="1.752" fill="white" fill-opacity="0.15"/>
<rect x="454.2" y="63.696" width="1.752" height="1.752" fill="white" fill-opacity="0.15"/>
<rect x="478.728" y="63.696" width="1.752" height="1.752" fill="white" fill-opacity="0.15"/>
<rect x="503.256" y="63.696" width="1.752" height="1.752" fill="white" fill-opacity="0.15"/>
<rect x="527.784" y="63.696" width="1.752" height="1.752" fill="white" fill-opacity="0.15"/>
<rect x="552.312" y="63.696" width="1.752" height="1.752" fill="white" fill-opacity="0.15"/>
<rect x="576.84" y="63.696" width="1.752" height="1.752" fill="white" fill-opacity="0.15"/>
<rect x="625.896" y="63.696" width="1.752" height="1.752" fill="white" fill-opacity="0.15"/>
<rect x="601.368" y="63.696" width="1.752" height="1.752" fill="white" fill-opacity="0.15"/>
<rect x="650.424" y="63.696" width="1.752" height="1.752" fill="white" fill-opacity="0.15"/>
<rect x="12.696" y="88.224" width="1.752" height="1.752" fill="white" fill-opacity="0.15"/>
<rect x="37.224" y="88.224" width="1.752" height="1.752" fill="white" fill-opacity="0.15"/>
<rect x="61.752" y="88.224" width="1.752" height="1.752" fill="white" fill-opacity="0.15"/>
<rect x="86.28" y="88.224" width="1.752" height="1.752" fill="white" fill-opacity="0.15"/>
<rect x="110.808" y="88.224" width="1.752" height="1.752" fill="white" fill-opacity="0.15"/>
<rect x="135.336" y="88.224" width="1.752" height="1.752" fill="white" fill-opacity="0.15"/>
<rect x="159.864" y="88.224" width="1.752" height="1.752" fill="white" fill-opacity="0.15"/>
<rect x="184.392" y="88.224" width="1.752" height="1.752" fill="white" fill-opacity="0.15"/>
<rect x="208.92" y="88.224" width="1.752" height="1.752" fill="white" fill-opacity="0.15"/>
<rect x="233.448" y="88.224" width="1.752" height="1.752" fill="white" fill-opacity="0.15"/>
<rect x="257.976" y="88.224" width="1.752" height="1.752" fill="white" fill-opacity="0.15"/>
<rect x="282.504" y="88.224" width="1.752" height="1.752" fill="white" fill-opacity="0.15"/>
<rect x="307.032" y="88.224" width="1.752" height="1.752" fill="white" fill-opacity="0.15"/>
<rect x="331.56" y="88.224" width="1.752" height="1.752" fill="white" fill-opacity="0.15"/>
<rect x="356.088" y="88.224" width="1.752" height="1.752" fill="white" fill-opacity="0.15"/>
<rect x="380.616" y="88.224" width="1.752" height="1.752" fill="white" fill-opacity="0.15"/>
<rect x="405.144" y="88.224" width="1.752" height="1.752" fill="white" fill-opacity="0.15"/>
<rect x="429.672" y="88.224" width="1.752" height="1.752" fill="white" fill-opacity="0.15"/>
<rect x="454.2" y="88.224" width="1.752" height="1.752" fill="white" fill-opacity="0.15"/>
<rect x="478.728" y="88.224" width="1.752" height="1.752" fill="white" fill-opacity="0.15"/>
<rect x="503.256" y="88.224" width="1.752" height="1.752" fill="white" fill-opacity="0.15"/>
<rect x="527.784" y="88.224" width="1.752" height="1.752" fill="white" fill-opacity="0.15"/>
<rect x="552.312" y="88.224" width="1.752" height="1.752" fill="white" fill-opacity="0.15"/>
<rect x="576.84" y="88.224" width="1.752" height="1.752" fill="white" fill-opacity="0.15"/>
<rect x="625.896" y="88.224" width="1.752" height="1.752" fill="white" fill-opacity="0.15"/>
<rect x="601.368" y="88.224" width="1.752" height="1.752" fill="white" fill-opacity="0.15"/>
<rect x="650.424" y="88.224" width="1.752" height="1.752" fill="white" fill-opacity="0.15"/>
<rect x="12.696" y="112.752" width="1.752" height="1.752" fill="white" fill-opacity="0.15"/>
<rect x="37.224" y="112.752" width="1.752" height="1.752" fill="white" fill-opacity="0.15"/>
<rect x="61.752" y="112.752" width="1.752" height="1.752" fill="white" fill-opacity="0.15"/>
<rect x="86.28" y="112.752" width="1.752" height="1.752" fill="white" fill-opacity="0.15"/>
<rect x="110.808" y="112.752" width="1.752" height="1.752" fill="white" fill-opacity="0.15"/>
<rect x="135.336" y="112.752" width="1.752" height="1.752" fill="white" fill-opacity="0.15"/>
<rect x="159.864" y="112.752" width="1.752" height="1.752" fill="white" fill-opacity="0.15"/>
<rect x="184.392" y="112.752" width="1.752" height="1.752" fill="white" fill-opacity="0.15"/>
<rect x="208.92" y="112.752" width="1.752" height="1.752" fill="white" fill-opacity="0.15"/>
<rect x="233.448" y="112.752" width="1.752" height="1.752" fill="white" fill-opacity="0.15"/>
<rect x="257.976" y="112.752" width="1.752" height="1.752" fill="white" fill-opacity="0.15"/>
<rect x="282.504" y="112.752" width="1.752" height="1.752" fill="white" fill-opacity="0.15"/>
<rect x="307.032" y="112.752" width="1.752" height="1.752" fill="white" fill-opacity="0.15"/>
<rect x="331.56" y="112.752" width="1.752" height="1.752" fill="white" fill-opacity="0.15"/>
<rect x="356.088" y="112.752" width="1.752" height="1.752" fill="white" fill-opacity="0.15"/>
<rect x="380.616" y="112.752" width="1.752" height="1.752" fill="white" fill-opacity="0.15"/>
<rect x="405.144" y="112.752" width="1.752" height="1.752" fill="white" fill-opacity="0.15"/>
<rect x="429.672" y="112.752" width="1.752" height="1.752" fill="white" fill-opacity="0.15"/>
<rect x="454.2" y="112.752" width="1.752" height="1.752" fill="white" fill-opacity="0.15"/>
<rect x="478.728" y="112.752" width="1.752" height="1.752" fill="white" fill-opacity="0.15"/>
<rect x="503.256" y="112.752" width="1.752" height="1.752" fill="white" fill-opacity="0.15"/>
<rect x="527.784" y="112.752" width="1.752" height="1.752" fill="white" fill-opacity="0.15"/>
<rect x="552.312" y="112.752" width="1.752" height="1.752" fill="white" fill-opacity="0.15"/>
<rect x="576.84" y="112.752" width="1.752" height="1.752" fill="white" fill-opacity="0.15"/>
<rect x="625.896" y="112.752" width="1.752" height="1.752" fill="white" fill-opacity="0.15"/>
<rect x="601.368" y="112.752" width="1.752" height="1.752" fill="white" fill-opacity="0.15"/>
<rect x="650.424" y="112.752" width="1.752" height="1.752" fill="white" fill-opacity="0.15"/>
<path d="M562 75.402V71.402H558V67.402H566V71.402H578V63.402H562V59.402H558V51.402H562V47.402H582V51.402H586V55.402H578V51.402H566V59.402H582V63.402H586V71.402H582V75.402H562ZM602 75.402V51.402H594V47.402H618V51.402H610V75.402H602ZM622 75.402V55.402H626V51.402H630V47.402H642V51.402H646V55.402H650V75.402H642V67.402H630V75.402H622ZM630 63.402H642V55.402H638V51.402H634V55.402H630V63.402ZM666 75.402V51.402H658V47.402H682V51.402H674V75.402H666ZM690 75.402V71.402H698V51.402H690V47.402H714V51.402H706V71.402H714V75.402H690ZM726 75.402V71.402H722V67.402H718V55.402H722V51.402H726V47.402H742V51.402H746V55.402H738V51.402H730V55.402H726V67.402H730V71.402H738V67.402H746V71.402H742V75.402H726ZM750 79.402V75.402H778V79.402H750ZM786 75.402V47.402H794V71.402H810V75.402H786ZM818 75.402V71.402H826V51.402H818V47.402H842V51.402H834V71.402H842V75.402H818ZM850 75.402V71.402H846V67.402H854V71.402H866V63.402H850V59.402H846V51.402H850V47.402H870V51.402H874V55.402H866V51.402H854V59.402H870V63.402H874V71.402H870V75.402H850ZM890 75.402V51.402H882V47.402H906V51.402H898V75.402H890ZM914 75.402V71.402H910V67.402H918V71.402H930V63.402H914V59.402H910V51.402H914V47.402H934V51.402H938V55.402H930V51.402H918V59.402H934V63.402H938V71.402H934V75.402H914Z" fill="#D9D9D9"/>
</g>
<defs>
<clipPath id="clip0_1_2">
<rect width="1500" height="127" fill="white"/>
</clipPath>
</defs>
</svg>
