<svg width="1500" height="500" viewBox="0 0 1500 500" fill="none" xmlns="http://www.w3.org/2000/svg">
<g clip-path="url(#clip0_1_2)">
<rect width="1500" height="500" rx="50" fill="black"/>
<rect x="46" y="20" width="4" height="4" fill="white" fill-opacity="0.15"/>
<rect x="102" y="20" width="4" height="4" fill="white" fill-opacity="0.15"/>
<rect x="158" y="20" width="4" height="4" fill="white" fill-opacity="0.15"/>
<rect x="214" y="20" width="4" height="4" fill="white" fill-opacity="0.15"/>
<rect x="270" y="20" width="4" height="4" fill="white" fill-opacity="0.15"/>
<rect x="326" y="20" width="4" height="4" fill="white" fill-opacity="0.15"/>
<rect x="382" y="20" width="4" height="4" fill="white" fill-opacity="0.15"/>
<rect x="438" y="20" width="4" height="4" fill="white" fill-opacity="0.15"/>
<rect x="494" y="20" width="4" height="4" fill="white" fill-opacity="0.15"/>
<rect x="550" y="20" width="4" height="4" fill="white" fill-opacity="0.15"/>
<rect x="606" y="20" width="4" height="4" fill="white" fill-opacity="0.15"/>
<rect x="662" y="20" width="4" height="4" fill="white" fill-opacity="0.15"/>
<rect x="718" y="20" width="4" height="4" fill="white" fill-opacity="0.15"/>
<rect x="774" y="20" width="4" height="4" fill="white" fill-opacity="0.15"/>
<rect x="830" y="20" width="4" height="4" fill="white" fill-opacity="0.15"/>
<rect x="886" y="20" width="4" height="4" fill="white" fill-opacity="0.15"/>
<rect x="942" y="20" width="4" height="4" fill="white" fill-opacity="0.15"/>
<rect x="998" y="20" width="4" height="4" fill="white" fill-opacity="0.15"/>
<rect x="1054" y="20" width="4" height="4" fill="white" fill-opacity="0.15"/>
<rect x="1110" y="20" width="4" height="4" fill="white" fill-opacity="0.15"/>
<rect x="1166" y="20" width="4" height="4" fill="white" fill-opacity="0.15"/>
<rect x="1222" y="20" width="4" height="4" fill="white" fill-opacity="0.15"/>
<rect x="1278" y="20" width="4" height="4" fill="white" fill-opacity="0.15"/>
<rect x="1334" y="20" width="4" height="4" fill="white" fill-opacity="0.15"/>
<rect x="1390" y="20" width="4" height="4" fill="white" fill-opacity="0.15"/>
<rect x="1446" y="20" width="4" height="4" fill="white" fill-opacity="0.15"/>
<rect x="46" y="76" width="4" height="4" fill="white" fill-opacity="0.15"/>
<rect x="102" y="76" width="4" height="4" fill="white" fill-opacity="0.15"/>
<rect x="158" y="76" width="4" height="4" fill="white" fill-opacity="0.15"/>
<rect x="214" y="76" width="4" height="4" fill="white" fill-opacity="0.15"/>
<rect x="270" y="76" width="4" height="4" fill="white" fill-opacity="0.15"/>
<rect x="326" y="76" width="4" height="4" fill="white" fill-opacity="0.15"/>
<rect x="382" y="76" width="4" height="4" fill="white" fill-opacity="0.15"/>
<rect x="438" y="76" width="4" height="4" fill="white" fill-opacity="0.15"/>
<rect x="494" y="76" width="4" height="4" fill="white" fill-opacity="0.15"/>
<rect x="550" y="76" width="4" height="4" fill="white" fill-opacity="0.15"/>
<rect x="606" y="76" width="4" height="4" fill="white" fill-opacity="0.15"/>
<rect x="662" y="76" width="4" height="4" fill="white" fill-opacity="0.15"/>
<rect x="718" y="76" width="4" height="4" fill="white" fill-opacity="0.15"/>
<rect x="774" y="76" width="4" height="4" fill="white" fill-opacity="0.15"/>
<rect x="830" y="76" width="4" height="4" fill="white" fill-opacity="0.15"/>
<rect x="886" y="76" width="4" height="4" fill="white" fill-opacity="0.15"/>
<rect x="942" y="76" width="4" height="4" fill="white" fill-opacity="0.15"/>
<rect x="998" y="76" width="4" height="4" fill="white" fill-opacity="0.15"/>
<rect x="1054" y="76" width="4" height="4" fill="white" fill-opacity="0.15"/>
<rect x="1110" y="76" width="4" height="4" fill="white" fill-opacity="0.15"/>
<rect x="1166" y="76" width="4" height="4" fill="white" fill-opacity="0.15"/>
<rect x="1222" y="76" width="4" height="4" fill="white" fill-opacity="0.15"/>
<rect x="1278" y="76" width="4" height="4" fill="white" fill-opacity="0.15"/>
<rect x="1334" y="76" width="4" height="4" fill="white" fill-opacity="0.15"/>
<rect x="1390" y="76" width="4" height="4" fill="white" fill-opacity="0.15"/>
<rect x="1446" y="76" width="4" height="4" fill="white" fill-opacity="0.15"/>
<rect x="46" y="132" width="4" height="4" fill="white" fill-opacity="0.15"/>
<rect x="102" y="132" width="4" height="4" fill="white" fill-opacity="0.15"/>
<rect x="158" y="132" width="4" height="4" fill="white" fill-opacity="0.15"/>
<rect x="214" y="132" width="4" height="4" fill="white" fill-opacity="0.15"/>
<rect x="270" y="132" width="4" height="4" fill="white" fill-opacity="0.15"/>
<rect x="326" y="132" width="4" height="4" fill="white" fill-opacity="0.15"/>
<rect x="382" y="132" width="4" height="4" fill="white" fill-opacity="0.15"/>
<rect x="438" y="132" width="4" height="4" fill="white" fill-opacity="0.15"/>
<rect x="494" y="132" width="4" height="4" fill="white" fill-opacity="0.15"/>
<rect x="550" y="132" width="4" height="4" fill="white" fill-opacity="0.15"/>
<rect x="606" y="132" width="4" height="4" fill="white" fill-opacity="0.15"/>
<rect x="662" y="132" width="4" height="4" fill="white" fill-opacity="0.15"/>
<rect x="718" y="132" width="4" height="4" fill="white" fill-opacity="0.15"/>
<rect x="774" y="132" width="4" height="4" fill="white" fill-opacity="0.15"/>
<rect x="830" y="132" width="4" height="4" fill="white" fill-opacity="0.15"/>
<rect x="886" y="132" width="4" height="4" fill="white" fill-opacity="0.15"/>
<rect x="942" y="132" width="4" height="4" fill="white" fill-opacity="0.15"/>
<rect x="998" y="132" width="4" height="4" fill="white" fill-opacity="0.15"/>
<rect x="1054" y="132" width="4" height="4" fill="white" fill-opacity="0.15"/>
<rect x="1110" y="132" width="4" height="4" fill="white" fill-opacity="0.15"/>
<rect x="1166" y="132" width="4" height="4" fill="white" fill-opacity="0.15"/>
<rect x="1222" y="132" width="4" height="4" fill="white" fill-opacity="0.15"/>
<rect x="1278" y="132" width="4" height="4" fill="white" fill-opacity="0.15"/>
<rect x="1334" y="132" width="4" height="4" fill="white" fill-opacity="0.15"/>
<rect x="1390" y="132" width="4" height="4" fill="white" fill-opacity="0.15"/>
<rect x="1446" y="132" width="4" height="4" fill="white" fill-opacity="0.15"/>
<rect x="46" y="188" width="4" height="4" fill="white" fill-opacity="0.15"/>
<rect x="102" y="188" width="4" height="4" fill="white" fill-opacity="0.15"/>
<rect x="158" y="188" width="4" height="4" fill="white" fill-opacity="0.15"/>
<rect x="214" y="188" width="4" height="4" fill="white" fill-opacity="0.15"/>
<rect x="270" y="188" width="4" height="4" fill="white" fill-opacity="0.15"/>
<rect x="326" y="188" width="4" height="4" fill="white" fill-opacity="0.15"/>
<rect x="382" y="188" width="4" height="4" fill="white" fill-opacity="0.15"/>
<rect x="438" y="188" width="4" height="4" fill="white" fill-opacity="0.15"/>
<rect x="494" y="188" width="4" height="4" fill="white" fill-opacity="0.15"/>
<rect x="550" y="188" width="4" height="4" fill="white" fill-opacity="0.15"/>
<rect x="606" y="188" width="4" height="4" fill="white" fill-opacity="0.15"/>
<rect x="662" y="188" width="4" height="4" fill="white" fill-opacity="0.15"/>
<rect x="718" y="188" width="4" height="4" fill="white" fill-opacity="0.15"/>
<rect x="774" y="188" width="4" height="4" fill="white" fill-opacity="0.15"/>
<rect x="830" y="188" width="4" height="4" fill="white" fill-opacity="0.15"/>
<rect x="886" y="188" width="4" height="4" fill="white" fill-opacity="0.15"/>
<rect x="942" y="188" width="4" height="4" fill="white" fill-opacity="0.15"/>
<rect x="998" y="188" width="4" height="4" fill="white" fill-opacity="0.15"/>
<rect x="1054" y="188" width="4" height="4" fill="white" fill-opacity="0.15"/>
<rect x="1110" y="188" width="4" height="4" fill="white" fill-opacity="0.15"/>
<rect x="1166" y="188" width="4" height="4" fill="white" fill-opacity="0.15"/>
<rect x="1222" y="188" width="4" height="4" fill="white" fill-opacity="0.15"/>
<rect x="1278" y="188" width="4" height="4" fill="white" fill-opacity="0.15"/>
<rect x="1334" y="188" width="4" height="4" fill="white" fill-opacity="0.15"/>
<rect x="1390" y="188" width="4" height="4" fill="white" fill-opacity="0.15"/>
<rect x="1446" y="188" width="4" height="4" fill="white" fill-opacity="0.15"/>
<rect x="46" y="244" width="4" height="4" fill="white" fill-opacity="0.15"/>
<rect x="102" y="244" width="4" height="4" fill="white" fill-opacity="0.15"/>
<rect x="158" y="244" width="4" height="4" fill="white" fill-opacity="0.15"/>
<rect x="214" y="244" width="4" height="4" fill="white" fill-opacity="0.15"/>
<rect x="270" y="244" width="4" height="4" fill="white" fill-opacity="0.15"/>
<rect x="326" y="244" width="4" height="4" fill="white" fill-opacity="0.15"/>
<rect x="382" y="244" width="4" height="4" fill="white" fill-opacity="0.15"/>
<rect x="438" y="244" width="4" height="4" fill="white" fill-opacity="0.15"/>
<rect x="494" y="244" width="4" height="4" fill="white" fill-opacity="0.15"/>
<rect x="550" y="244" width="4" height="4" fill="white" fill-opacity="0.15"/>
<rect x="606" y="244" width="4" height="4" fill="white" fill-opacity="0.15"/>
<rect x="662" y="244" width="4" height="4" fill="white" fill-opacity="0.15"/>
<rect x="718" y="244" width="4" height="4" fill="white" fill-opacity="0.15"/>
<rect x="774" y="244" width="4" height="4" fill="white" fill-opacity="0.15"/>
<rect x="830" y="244" width="4" height="4" fill="white" fill-opacity="0.15"/>
<rect x="886" y="244" width="4" height="4" fill="white" fill-opacity="0.15"/>
<rect x="942" y="244" width="4" height="4" fill="white" fill-opacity="0.15"/>
<rect x="998" y="244" width="4" height="4" fill="white" fill-opacity="0.15"/>
<rect x="1054" y="244" width="4" height="4" fill="white" fill-opacity="0.15"/>
<rect x="1110" y="244" width="4" height="4" fill="white" fill-opacity="0.15"/>
<rect x="1166" y="244" width="4" height="4" fill="white" fill-opacity="0.15"/>
<rect x="1222" y="244" width="4" height="4" fill="white" fill-opacity="0.15"/>
<rect x="1278" y="244" width="4" height="4" fill="white" fill-opacity="0.15"/>
<rect x="1334" y="244" width="4" height="4" fill="white" fill-opacity="0.15"/>
<rect x="1390" y="244" width="4" height="4" fill="white" fill-opacity="0.15"/>
<rect x="1446" y="244" width="4" height="4" fill="white" fill-opacity="0.15"/>
<rect x="46" y="300" width="4" height="4" fill="white" fill-opacity="0.15"/>
<rect x="102" y="300" width="4" height="4" fill="white" fill-opacity="0.15"/>
<rect x="158" y="300" width="4" height="4" fill="white" fill-opacity="0.15"/>
<rect x="214" y="300" width="4" height="4" fill="white" fill-opacity="0.15"/>
<rect x="270" y="300" width="4" height="4" fill="white" fill-opacity="0.15"/>
<rect x="326" y="300" width="4" height="4" fill="white" fill-opacity="0.15"/>
<rect x="382" y="300" width="4" height="4" fill="white" fill-opacity="0.15"/>
<rect x="438" y="300" width="4" height="4" fill="white" fill-opacity="0.15"/>
<rect x="494" y="300" width="4" height="4" fill="white" fill-opacity="0.15"/>
<rect x="550" y="300" width="4" height="4" fill="white" fill-opacity="0.15"/>
<rect x="606" y="300" width="4" height="4" fill="white" fill-opacity="0.15"/>
<rect x="662" y="300" width="4" height="4" fill="white" fill-opacity="0.15"/>
<rect x="718" y="300" width="4" height="4" fill="white" fill-opacity="0.15"/>
<rect x="774" y="300" width="4" height="4" fill="white" fill-opacity="0.15"/>
<rect x="830" y="300" width="4" height="4" fill="white" fill-opacity="0.15"/>
<rect x="886" y="300" width="4" height="4" fill="white" fill-opacity="0.15"/>
<rect x="942" y="300" width="4" height="4" fill="white" fill-opacity="0.15"/>
<rect x="998" y="300" width="4" height="4" fill="white" fill-opacity="0.15"/>
<rect x="1054" y="300" width="4" height="4" fill="white" fill-opacity="0.15"/>
<rect x="1110" y="300" width="4" height="4" fill="white" fill-opacity="0.15"/>
<rect x="1166" y="300" width="4" height="4" fill="white" fill-opacity="0.15"/>
<rect x="1222" y="300" width="4" height="4" fill="white" fill-opacity="0.15"/>
<rect x="1278" y="300" width="4" height="4" fill="white" fill-opacity="0.15"/>
<rect x="1334" y="300" width="4" height="4" fill="white" fill-opacity="0.15"/>
<rect x="1390" y="300" width="4" height="4" fill="white" fill-opacity="0.15"/>
<rect x="1446" y="300" width="4" height="4" fill="white" fill-opacity="0.15"/>
<rect x="46" y="356" width="4" height="4" fill="white" fill-opacity="0.15"/>
<rect x="102" y="356" width="4" height="4" fill="white" fill-opacity="0.15"/>
<rect x="158" y="356" width="4" height="4" fill="white" fill-opacity="0.15"/>
<rect x="214" y="356" width="4" height="4" fill="white" fill-opacity="0.15"/>
<rect x="270" y="356" width="4" height="4" fill="white" fill-opacity="0.15"/>
<rect x="326" y="356" width="4" height="4" fill="white" fill-opacity="0.15"/>
<rect x="382" y="356" width="4" height="4" fill="white" fill-opacity="0.15"/>
<rect x="438" y="356" width="4" height="4" fill="white" fill-opacity="0.15"/>
<rect x="494" y="356" width="4" height="4" fill="white" fill-opacity="0.15"/>
<rect x="550" y="356" width="4" height="4" fill="white" fill-opacity="0.15"/>
<rect x="606" y="356" width="4" height="4" fill="white" fill-opacity="0.15"/>
<rect x="662" y="356" width="4" height="4" fill="white" fill-opacity="0.15"/>
<rect x="718" y="356" width="4" height="4" fill="white" fill-opacity="0.15"/>
<rect x="774" y="356" width="4" height="4" fill="white" fill-opacity="0.15"/>
<rect x="830" y="356" width="4" height="4" fill="white" fill-opacity="0.15"/>
<rect x="886" y="356" width="4" height="4" fill="white" fill-opacity="0.15"/>
<rect x="942" y="356" width="4" height="4" fill="white" fill-opacity="0.15"/>
<rect x="998" y="356" width="4" height="4" fill="white" fill-opacity="0.15"/>
<rect x="1054" y="356" width="4" height="4" fill="white" fill-opacity="0.15"/>
<rect x="1110" y="356" width="4" height="4" fill="white" fill-opacity="0.15"/>
<rect x="1166" y="356" width="4" height="4" fill="white" fill-opacity="0.15"/>
<rect x="1222" y="356" width="4" height="4" fill="white" fill-opacity="0.15"/>
<rect x="1278" y="356" width="4" height="4" fill="white" fill-opacity="0.15"/>
<rect x="1334" y="356" width="4" height="4" fill="white" fill-opacity="0.15"/>
<rect x="1390" y="356" width="4" height="4" fill="white" fill-opacity="0.15"/>
<rect x="1446" y="356" width="4" height="4" fill="white" fill-opacity="0.15"/>
<rect x="46" y="412" width="4" height="4" fill="white" fill-opacity="0.15"/>
<rect x="102" y="412" width="4" height="4" fill="white" fill-opacity="0.15"/>
<rect x="158" y="412" width="4" height="4" fill="white" fill-opacity="0.15"/>
<rect x="214" y="412" width="4" height="4" fill="white" fill-opacity="0.15"/>
<rect x="270" y="412" width="4" height="4" fill="white" fill-opacity="0.15"/>
<rect x="326" y="412" width="4" height="4" fill="white" fill-opacity="0.15"/>
<rect x="382" y="412" width="4" height="4" fill="white" fill-opacity="0.15"/>
<rect x="438" y="412" width="4" height="4" fill="white" fill-opacity="0.15"/>
<rect x="494" y="412" width="4" height="4" fill="white" fill-opacity="0.15"/>
<rect x="550" y="412" width="4" height="4" fill="white" fill-opacity="0.15"/>
<rect x="606" y="412" width="4" height="4" fill="white" fill-opacity="0.15"/>
<rect x="662" y="412" width="4" height="4" fill="white" fill-opacity="0.15"/>
<rect x="718" y="412" width="4" height="4" fill="white" fill-opacity="0.15"/>
<rect x="774" y="412" width="4" height="4" fill="white" fill-opacity="0.15"/>
<rect x="830" y="412" width="4" height="4" fill="white" fill-opacity="0.15"/>
<rect x="886" y="412" width="4" height="4" fill="white" fill-opacity="0.15"/>
<rect x="942" y="412" width="4" height="4" fill="white" fill-opacity="0.15"/>
<rect x="998" y="412" width="4" height="4" fill="white" fill-opacity="0.15"/>
<rect x="1054" y="412" width="4" height="4" fill="white" fill-opacity="0.15"/>
<rect x="1110" y="412" width="4" height="4" fill="white" fill-opacity="0.15"/>
<rect x="1166" y="412" width="4" height="4" fill="white" fill-opacity="0.15"/>
<rect x="1222" y="412" width="4" height="4" fill="white" fill-opacity="0.15"/>
<rect x="1278" y="412" width="4" height="4" fill="white" fill-opacity="0.15"/>
<rect x="1334" y="412" width="4" height="4" fill="white" fill-opacity="0.15"/>
<rect x="1390" y="412" width="4" height="4" fill="white" fill-opacity="0.15"/>
<rect x="1446" y="412" width="4" height="4" fill="white" fill-opacity="0.15"/>
<rect x="46" y="468" width="4" height="4" fill="white" fill-opacity="0.15"/>
<rect x="102" y="468" width="4" height="4" fill="white" fill-opacity="0.15"/>
<rect x="158" y="468" width="4" height="4" fill="white" fill-opacity="0.15"/>
<rect x="214" y="468" width="4" height="4" fill="white" fill-opacity="0.15"/>
<rect x="270" y="468" width="4" height="4" fill="white" fill-opacity="0.15"/>
<rect x="326" y="468" width="4" height="4" fill="white" fill-opacity="0.15"/>
<rect x="382" y="468" width="4" height="4" fill="white" fill-opacity="0.15"/>
<rect x="438" y="468" width="4" height="4" fill="white" fill-opacity="0.15"/>
<rect x="494" y="468" width="4" height="4" fill="white" fill-opacity="0.15"/>
<rect x="550" y="468" width="4" height="4" fill="white" fill-opacity="0.15"/>
<rect x="606" y="468" width="4" height="4" fill="white" fill-opacity="0.15"/>
<rect x="662" y="468" width="4" height="4" fill="white" fill-opacity="0.15"/>
<rect x="718" y="468" width="4" height="4" fill="white" fill-opacity="0.15"/>
<rect x="774" y="468" width="4" height="4" fill="white" fill-opacity="0.15"/>
<rect x="830" y="468" width="4" height="4" fill="white" fill-opacity="0.15"/>
<rect x="886" y="468" width="4" height="4" fill="white" fill-opacity="0.15"/>
<rect x="942" y="468" width="4" height="4" fill="white" fill-opacity="0.15"/>
<rect x="998" y="468" width="4" height="4" fill="white" fill-opacity="0.15"/>
<rect x="1054" y="468" width="4" height="4" fill="white" fill-opacity="0.15"/>
<rect x="1110" y="468" width="4" height="4" fill="white" fill-opacity="0.15"/>
<rect x="1166" y="468" width="4" height="4" fill="white" fill-opacity="0.15"/>
<rect x="1222" y="468" width="4" height="4" fill="white" fill-opacity="0.15"/>
<rect x="1278" y="468" width="4" height="4" fill="white" fill-opacity="0.15"/>
<rect x="1334" y="468" width="4" height="4" fill="white" fill-opacity="0.15"/>
<rect x="1390" y="468" width="4" height="4" fill="white" fill-opacity="0.15"/>
<rect x="1446" y="468" width="4" height="4" fill="white" fill-opacity="0.15"/>
<path d="M374 274V266H366V258H382V266H406V250H374V242H366V226H374V218H414V226H422V234H406V226H382V242H414V250H422V266H414V274H374ZM454 274V226H438V218H486V226H470V274H454ZM494 274V234H502V226H510V218H534V226H542V234H550V274H534V258H510V274H494ZM510 250H534V234H526V226H518V234H510V250ZM582 274V226H566V218H614V226H598V274H582ZM630 274V266H646V226H630V218H678V226H662V266H678V274H630ZM702 274V266H694V258H686V234H694V226H702V218H734V226H742V234H726V226H710V234H702V258H710V266H726V258H742V266H734V274H702ZM750 282V274H806V282H750ZM822 274V218H838V266H870V274H822ZM886 274V266H902V226H886V218H934V226H918V266H934V274H886ZM950 274V266H942V258H958V266H982V250H950V242H942V226H950V218H990V226H998V234H982V226H958V242H990V250H998V266H990V274H950ZM1030 274V226H1014V218H1062V226H1046V274H1030ZM1078 274V266H1070V258H1086V266H1110V250H1078V242H1070V226H1078V218H1118V226H1126V234H1110V226H1086V242H1118V250H1126V266H1118V274H1078Z" fill="#D9D9D9"/>
</g>
<defs>
<clipPath id="clip0_1_2">
<rect width="1500" height="500" rx="50" fill="white"/>
</clipPath>
</defs>
</svg>
